<svg width="128" height="128" viewBox="0 0 128 128" fill="none" xmlns="http://www.w3.org/2000/svg">
<path d="M64 14C73.8891 14 83.5561 16.9324 91.7785 22.4265C100.001 27.9206 106.41 35.7295 110.194 44.8658C113.978 54.0021 114.969 64.0555 113.039 73.7545C111.11 83.4536 106.348 92.3627 99.3553 99.3553C92.3627 106.348 83.4536 111.11 73.7545 113.039C64.0555 114.969 54.0021 113.978 44.8658 110.194C35.7295 106.41 27.9206 100.001 22.4265 91.7785C16.9324 83.5561 14 73.8891 14 64L34 64C34 69.9334 35.7595 75.7336 39.0559 80.6671C42.3524 85.6006 47.0377 89.4458 52.5195 91.7164C58.0013 93.987 64.0333 94.5811 69.8527 93.4236C75.6721 92.266 81.0176 89.4088 85.2132 85.2132C89.4088 81.0176 92.266 75.6721 93.4236 69.8527C94.5811 64.0333 93.987 58.0013 91.7164 52.5195C89.4458 47.0377 85.6006 42.3524 80.6671 39.0559C75.7336 35.7595 69.9334 34 64 34V14Z" fill="#242424"/>
<path d="M14 24L47.75 4.51443L47.75 43.4856L14 24Z" fill="#242424"/>
<line x1="47" y1="24" x2="64" y2="24" stroke="#242424" stroke-width="20"/>
</svg>
